<?xml version="1.0" encoding="utf-8"?>
<!-- Generator: Adobe Illustrator 27.5.0, SVG Export Plug-In . SVG Version: 6.00 Build 0)  -->
<svg version="1.1" id="Capa_1" xmlns="http://www.w3.org/2000/svg" xmlns:xlink="http://www.w3.org/1999/xlink" x="0px" y="0px"
	 viewBox="0 0 2195 2051" style="enable-background:new 0 0 2195 2051;" xml:space="preserve">
<path style="fill:#EB6568;" d="M785.204,1374.655l6.447-78.88c0.842-10.297,8.294-18.862,18.393-21.047
	c31.618-6.841,62.171-16.775,91.331-29.462c9.487-4.128,20.546-1.526,27.241,6.361l51.28,60.41
	c14.284,16.828,39.74,18.908,56.567,4.624l130.578-110.843c16.827-14.284,18.908-39.738,4.624-56.565l-51.283-60.412
	c-6.695-7.887-7.467-19.221-1.855-27.911c17.251-26.715,32.017-55.25,43.9-85.338c3.795-9.609,13.456-15.573,23.753-14.732
	l78.88,6.447c21.999,1.799,41.469-14.73,43.267-36.729l13.951-170.71c1.798-21.999-14.73-41.469-36.728-43.267l-78.879-6.447
	c-10.297-0.842-18.862-8.295-21.047-18.393c-6.84-31.618-16.777-62.171-29.462-91.332c-4.126-9.487-1.525-20.545,6.362-27.24
	l55.499-47.112c19.529-16.578,21.942-46.118,5.365-65.647l-102.506-120.754c-16.578-19.528-46.118-21.942-65.646-5.365l-55.5,47.116
	c-7.888,6.696-19.224,7.467-27.915,1.853c-26.712-17.255-55.247-32.017-85.335-43.901c-9.608-3.795-15.571-13.456-14.73-23.752
	l6.449-78.88c1.799-21.999-14.73-41.47-36.729-43.268l-170.711-13.952c-21.998-1.798-41.468,14.73-43.266,36.728l-6.448,78.882
	c-0.842,10.298-8.296,18.864-18.395,21.048c-31.617,6.838-62.169,16.774-91.327,29.459c-9.487,4.128-20.546,1.525-27.242-6.361
	l-51.283-60.412c-14.284-16.827-39.738-18.907-56.565-4.623L245.663,385.093c-16.827,14.284-18.907,39.738-4.623,56.564
	l51.284,60.413c6.695,7.888,7.467,19.223,1.853,27.915c-17.253,26.713-32.018,55.245-43.898,85.332
	c-3.794,9.611-13.456,15.575-23.754,14.733l-78.879-6.447c-21.999-1.799-41.47,14.73-43.268,36.729l-13.952,170.71
	c-1.798,21.998,14.73,41.469,36.728,43.267l78.88,6.447c10.297,0.841,18.861,8.295,21.046,18.392
	c6.84,31.621,16.776,62.173,29.461,91.333c4.126,9.487,1.525,20.545-6.362,27.24l-60.411,51.283
	c-16.827,14.284-18.907,39.738-4.623,56.565l110.843,130.574c14.285,16.826,39.739,18.907,56.566,4.624l60.412-51.281
	c7.888-6.695,19.223-7.467,27.914-1.854c26.713,17.251,55.245,32.016,85.332,43.898c9.61,3.796,15.574,13.457,14.733,23.755
	l-6.445,78.88c-1.798,21.999,14.73,41.468,36.729,43.266l170.71,13.952C763.936,1413.181,783.406,1396.654,785.204,1374.655z
	 M403.384,632.51c33.083-67.289,119.662-140.786,191.43-162.505c301.37-91.206,553.529,205.49,414.672,488.308
	c-33.093,67.402-119.787,140.983-191.672,162.677C516.218,1212.007,264.476,915.041,403.384,632.51z"/>
<path style="fill:#E8403E;" d="M1483.129,1437.337c20.594,12.085,40.513,23.043,64.239,26.752c9.263,1.58,19.665,2.691,30.612,2.691
	c26.5,0,56.17-6.509,80.553-28.601c49.593-45.548,60.615-113.733,26.807-165.807c-4.244-6.673-10.241-11.431-17.816-14.142
	c-0.177-0.066-0.378-0.045-0.544,0.053c-21.339,12.59-38.469,33.77-48.368,59.768c-11.436-30.01-32.598-53.589-58.271-64.849
	c-39.75-17.435-79.752-3.538-101.887,35.433c-2.888,5.075-5.413,10.538-7.51,16.241c-16.356,44.444-9.626,85.445,20.539,125.332
	C1475.854,1432.18,1479.815,1434.543,1483.129,1437.337z"/>
<path style="fill:#E8403E;" d="M525.218,871.843c28.884,17.032,56.2,33.09,89.229,38.252c11.95,2.039,25.361,3.47,39.473,3.47
	c34.16,0,72.403-8.389,103.822-36.857c63.921-58.71,78.133-146.598,34.558-213.72c-5.382-8.465-12.975-14.507-22.535-18.011
	c-0.285-0.038-0.568-0.072-0.855-0.111c-0.014,0.007-0.031-0.004-0.045,0.005c-27.629,16.299-49.779,43.774-62.515,77.491
	c-14.691-38.895-42.048-69.47-75.265-84.038c-51.211-22.46-102.723-4.54-131.239,45.647c-3.73,6.567-6.985,13.608-9.677,20.926
	c-21.109,57.373-12.39,110.294,26.639,161.781C519.872,868.19,522.712,869.901,525.218,871.843z"/>
<path style="fill:#F5AFAD;" d="M381.508,410.468c-5.791-5.947-11.708-12.348-17.579-19.021
	c-10.528-11.97-25.613-18.733-41.629-18.733c-0.635,0-1.27,0.01-1.91,0.033c-16.546,0.554-31.736,8.308-41.685,21.276l-0.282,0.376
	c-13.699,18.202,0.04,37.323,12.161,54.197c1.215,1.685,2.404,3.346,3.548,4.977c4.964,7.079,10.302,13.134,15.457,18.99
	c15.533,17.64,27.801,31.57,13.119,57.044c-7.207,12.504-15.019,29.68-22.579,46.292c-7.116,15.644-14.479,31.819-21.137,43.615
	c-6.169,10.919-5.66,19.94,1.361,24.131c2.475,1.479,5.529,2.215,8.855,2.215c9.026,0,20.034-5.433,26.777-16.13
	c1.205-1.91,2.792-4.377,4.692-7.338c15.397-23.972,51.457-80.111,75.714-136.067c11.062-25.507,5.337-55.159-14.586-75.551
	L381.508,410.468z"/>
<path style="fill:#F5AFAD;" d="M309.478,953.905c-5.892-27.878-19.696-93.16-41.771-150.035
	c-10.054-25.913-34.967-42.985-63.467-43.492l-0.429-0.007c-8.255-0.159-16.959-0.554-25.875-1.177
	c-16.49-1.144-32.613,5.145-44.12,17.299c-11.38,12.023-16.737,28.213-14.696,44.424l0.06,0.466v0.003
	c3.044,22.576,26.263,26.525,46.745,30.008c2.046,0.348,4.062,0.69,6.018,1.046c8.508,1.545,16.556,2.107,24.343,2.648
	c23.446,1.63,41.968,2.92,49.421,31.361c3.664,13.958,10.176,31.668,16.47,48.794c5.932,16.132,12.065,32.812,15.614,45.888
	c2.883,10.606,8.386,16.571,15.049,16.571c0.938,0,1.9-0.118,2.883-0.36c10.418-2.56,19.288-18.048,15.568-34.944
	C310.808,960.197,310.204,957.337,309.478,953.905z"/>
<path style="fill:#F5AFAD;" d="M728.727,222.794c-11.925-11.478-28.098-16.962-44.301-15.069l-0.474,0.055
	c-22.599,2.86-26.742,26.044-30.395,46.496c-0.368,2.044-0.726,4.055-1.099,6.01c-1.613,8.492-2.243,16.536-2.848,24.315
	c-1.83,23.433-3.271,41.942-31.771,49.164c-13.996,3.543-31.767,9.911-48.953,16.067c-16.173,5.794-32.895,11.786-45.999,15.226
	c-12.126,3.188-18.24,9.838-16.354,17.794c2.096,8.847,13.482,16.659,27.21,16.659c2.47,0,5.02-0.254,7.6-0.801
	c2.223-0.469,5.105-1.053,8.573-1.756c27.921-5.663,93.298-18.92,150.31-40.503c26.001-9.838,43.278-34.609,44.024-63.105
	l0.01-0.426c0.227-8.353,0.686-16.813,1.396-25.865C746.951,250.529,740.782,234.396,728.727,222.794z"/>
<path style="fill:#F09998;" d="M496.856,758.795c0.464,3.13,2.963,4.642,5.241,4.753c0.091,0.005,0.186,0.008,0.282,0.008
	c2.268,0,4.788-1.315,5.539-4.335l0.116-0.454c3.407-13.081,7.434-26.797,15.755-38.094c15.256-20.697,41.443-31.852,65.035-27.793
	c2.329,0.401,5.045,1.121,7.923,1.883c11.879,3.142,26.656,7.053,32.235-5.982c4.4-10.284-0.101-24.255-6.794-31.298
	c-14.58-15.333-37.859-12.781-47.184-10.959c-16.631,3.233-32.664,12.242-46.361,26.051c-23.768,23.957-35.955,56.923-31.812,86.026
	L496.856,758.795z"/>
<path style="fill:#F09998;" d="M1516.796,1259.544c-12.923,2.512-25.366,9.508-36,20.23c-18.451,18.598-27.916,44.192-24.676,66.94
	c0.368,2.505,2.374,3.717,4.193,3.807c0.076,0.003,0.151,0.005,0.232,0.005c1.809,0,3.83-1.051,4.43-3.465l0.091-0.352
	c2.641-10.13,5.76-20.752,12.186-29.474c11.779-15.997,31.968-24.623,50.253-21.48c1.8,0.31,3.906,0.867,6.134,1.457
	c9.259,2.454,20.775,5.491,25.149-4.72c3.432-8.029-0.076-18.922-5.297-24.411
	C1542.146,1256.147,1524.053,1258.133,1516.796,1259.544z"/>
<path style="fill:#F59F00;" d="M1883.277,1954.281c0-7.802-22.992-12.826-30.522-14.26c-0.948-5.738-5.549-30.539-14.293-30.539
	c-8.694,0-13.336,24.755-14.298,30.521c-5.791,0.88-30.517,5.171-30.517,14.298c0,8.837,24.746,13.356,30.517,14.291
	c0.963,5.755,5.604,30.526,14.298,30.526c8.175,0,13.225-24.799,14.283-30.526
	C1858.47,1967.645,1883.216,1963.038,1883.277,1954.281z"/>
<path style="fill:#F59F00;" d="M1616.828,560.253c-0.943-5.73-5.549-30.539-14.293-30.539c-8.734,0-13.335,24.751-14.293,30.519
	c-5.781,0.882-30.522,5.193-30.522,14.301c0,8.84,24.761,13.361,30.522,14.29c0.953,5.761,5.559,30.524,14.293,30.524
	c8.175,0,13.224-24.799,14.283-30.524c5.725-0.952,30.476-5.579,30.532-14.311C1647.349,566.712,1624.357,561.687,1616.828,560.253z
	"/>
<path style="fill:#F59F00;" d="M521.138,82.113c-0.947-5.738-5.548-30.539-14.293-30.539c-8.689,0-13.331,24.753-14.293,30.521
	c-5.781,0.877-30.522,5.169-30.522,14.298c0,8.845,24.751,13.358,30.522,14.291c0.962,5.755,5.604,30.526,14.293,30.526
	c7.973,0,12.892-22.997,14.288-30.526c5.735-0.95,30.471-5.557,30.532-14.311C551.665,88.566,528.668,83.544,521.138,82.113z"/>
<path style="fill:#F59F00;" d="M913.922,1586.152l-0.141-0.144c-0.867-5.276-7.449-42.892-19.63-42.892
	c-12.186,0-18.763,37.61-19.625,42.892l-0.126,0.126c-5.312,0.794-42.894,6.859-42.894,19.63c0,12.385,37.608,18.789,42.89,19.628
	l0.131,0.128c0.867,5.297,7.434,42.892,19.625,42.892c11.34,0,18.653-37.628,19.62-42.882l0.136-0.141
	c5.277-0.862,42.809-7.436,42.894-19.653C956.802,1594.7,919.174,1587.152,913.922,1586.152z"/>
<path style="fill:#ED7230;" d="M2073.333,1256.264h-62.231c-12.737,0-24.266-7.54-29.371-19.209l-13.931-31.843
	c-4.868-11.126-2.423-24.099,6.161-32.69l45.713-45.754c12-12.011,11.995-31.474-0.01-43.48l-115.577-115.577
	c-12.007-12.007-31.473-12.011-43.485-0.01l-32.635,32.602c-25.482,25.458-71.115,22.912-92.895-16.486
	c-2.689-4.866-3.966-10.41-3.966-15.969v-53.813c0-16.985-13.769-30.754-30.754-30.754h-163.48
	c-16.986,0-30.754,13.769-30.754,30.754v63.481c0,12.448-7.505,23.668-19.01,28.421l-32.128,13.27
	c-11.478,4.741-24.681,2.112-33.467-6.665l-44.896-44.845c-12.01-11.997-31.471-11.992-43.476,0.012l-115.572,115.568
	c-12.011,12.01-12.011,31.484,0.001,43.494l44.678,44.673c8.793,8.792,11.466,21.995,6.786,33.515l-13.094,32.229
	c-4.686,11.533-15.892,19.077-28.34,19.077h-63.71c-16.985,0-30.754,13.769-30.754,30.754v163.485
	c0,16.984,13.768,30.751,30.752,30.751h63.879c12.231,0,23.252,7.381,27.908,18.69l13.232,32.135
	c4.815,11.693,2.13,25.133-6.807,34.08l-44.549,44.594c-12,12.012-11.994,31.476,0.011,43.481l128.886,128.889
	c4.653,4.653,12.196,4.653,16.849,0l57.956-57.957c8.808-8.809,22.036-11.484,33.575-6.79l32.262,13.124
	c11.505,4.68,19.029,15.863,19.029,28.283v63.7c0,16.985,13.769,30.754,30.754,30.754h163.483c16.983,0,30.751-13.768,30.751-30.751
	v-63.393c0-12.409,7.456-23.603,18.908-28.384l32.128-13.413c11.508-4.805,24.779-2.184,33.597,6.634l39.807,39.809
	c14.804,14.805,38.807,14.805,53.608,0l105.44-105.437c14.802-14.805,14.802-38.807,0-53.609l-39.783-39.781
	c-8.74-8.741-11.38-21.875-6.693-33.314l13.192-32.195c4.745-11.583,16.021-19.149,28.539-19.149h63.487
	c16.984,0,30.751-13.768,30.751-30.751v-163.485C2104.088,1270.033,2090.319,1256.264,2073.333,1256.264z M1868.537,1487.985
	c-24.981,58.713-72.042,105.766-130.76,130.733c-241.623,102.738-471.824-127.76-368.978-369.156
	c24.975-58.621,71.955-105.605,130.571-130.589C1740.801,1016.065,1971.354,1246.337,1868.537,1487.985z"/>
<path style="fill:#DC2A28;" d="M1472.505,1431.606c0.227,0.282,0.459,0.564,0.681,0.852c1.174,1.497,2.364,2.989,3.578,4.468
	c0.867,1.049,1.739,2.092,2.631,3.13c1.255,1.467,2.54,2.923,3.845,4.372l0.428,0.474c0.771,0.849,1.542,1.698,2.323,2.543
	c1.361,1.454,2.752,2.893,4.148,4.33l0.524,0.537c0.761,0.779,1.517,1.557,2.293,2.326c1.487,1.487,3.019,2.948,4.551,4.41
	l0.903,0.864c0.6,0.578,1.199,1.154,1.814,1.724c1.734,1.618,3.513,3.211,5.297,4.803l1.003,0.902
	c0.418,0.376,0.832,0.748,1.255,1.121c4.964,4.344,10.322,8.797,15.926,13.23c0.464,0.365,0.932,0.728,1.401,1.088l1.023,0.796
	c1.935,1.51,3.866,3.014,5.827,4.498l4.138,3.094c1.411,1.051,2.817,2.101,4.244,3.142c0.826,0.602,1.653,1.199,2.484,1.799
	l0.912,0.66c1.699,1.225,3.402,2.447,5.11,3.656c1.17,0.827,2.338,1.648,3.513,2.469c1.688,1.182,3.382,2.359,5.07,3.531
	c1.19,0.817,2.374,1.628,3.558,2.437c1.698,1.162,3.392,2.316,5.09,3.46l3.513,2.366c1.754,1.174,3.503,2.338,5.252,3.498
	l28.122,18.459c0.005,0.005,0.016,0.01,0.025,0.015c4.743,3.102,10.181,4.655,15.624,4.655c5.448,0,10.896-1.557,15.649-4.67
	l7.943-5.193c5.166-3.375,10.417-6.804,15.709-10.297c11.229-7.408,25.961-17.269,40.35-27.843c2.656-1.953,5.297-3.923,7.917-5.917
	c17.494-13.325,31.772-25.89,43.646-38.416c2.177-2.298,4.309-4.632,6.33-6.935c10.791-12.3,19.409-24.846,25.628-37.292
	c2.676-5.358,4.969-10.821,6.818-16.234c3.901-11.418,6.023-23.179,6.3-34.952c0.071-3.085,0.021-6.204-0.146-9.279
	c-0.715-12.826-3.568-26.086-8.477-39.412c-2.097-5.703-4.622-11.166-7.51-16.239c-22.13-38.971-62.132-52.881-101.887-35.436
	c-1.693,0.739-3.397,1.552-5.065,2.412c-0.695,0.356-1.376,0.741-2.056,1.124l-1.467,0.811c-0.443,0.24-0.887,0.476-1.315,0.733
	c-0.217,0.129-0.338,0.368-0.312,0.617c0.02,0.247,0.186,0.461,0.423,0.544c7.298,2.611,13.073,7.194,17.161,13.618
	c0,0.003,0,0.005,0.005,0.005c33.46,51.543,22.523,119.047-26.595,164.157c-34.07,30.877-78.673,30.963-110.092,25.59
	c-25.486-3.981-46.629-16.452-69.011-29.657c-1.981-1.167-3.961-2.336-6.068-3.568c-0.262-0.151-0.605-0.099-0.807,0.133
	c-0.201,0.23-0.216,0.572-0.03,0.816C1471.925,1430.898,1472.218,1431.253,1472.505,1431.606z"/>
<path style="fill:#DC2A28;" d="M517.968,868.257c0.292,0.36,0.589,0.72,0.872,1.086c1.512,1.938,3.044,3.863,4.617,5.773
	c1.119,1.353,2.248,2.696,3.397,4.034c1.623,1.89,3.271,3.767,4.954,5.63c1.17,1.3,2.349,2.606,3.548,3.893
	c1.759,1.883,3.553,3.742,5.368,5.6l1.023,1.051c0.857,0.877,1.709,1.754,2.586,2.623c1.92,1.915,3.896,3.808,5.877,5.695
	l1.229,1.175c0.756,0.726,1.507,1.449,2.278,2.162c2.238,2.081,4.521,4.133,6.819,6.177l1.19,1.073
	c0.574,0.522,1.144,1.04,1.733,1.555c6.421,5.624,13.331,11.365,20.538,17.062c0.59,0.469,1.19,0.93,1.789,1.393l1.356,1.051
	c2.49,1.94,4.98,3.878,7.499,5.788c0.912,0.696,1.835,1.381,2.757,2.066l1.895,1.414c2.046,1.53,4.097,3.057,6.164,4.569
	c1.114,0.814,2.233,1.621,3.352,2.427l1.043,0.753c2.182,1.573,4.37,3.148,6.567,4.702c1.522,1.079,3.049,2.15,4.581,3.221
	c2.162,1.512,4.324,3.019,6.486,4.513l4.622,3.17c2.182,1.495,4.37,2.976,6.552,4.45l4.546,3.062
	c2.247,1.507,4.496,3.001,6.738,4.49l4.263,2.835c2.419,1.595,4.823,3.175,7.217,4.747l24.841,16.257
	c6.099,3.997,13.053,6.022,20.054,6.022c5.221,0,10.463-1.126,15.397-3.404c1.618-0.748,3.21-1.63,4.727-2.621l9.339-6.106
	c22.76-14.873,46.291-30.25,69.289-46.947c5.936-4.312,11.672-8.595,17.045-12.736c8.926-6.872,17.302-13.688,24.907-20.263
	l0.857-0.743c0.63-0.544,1.255-1.088,1.875-1.638c18.461-16.213,33.414-31.94,45.722-48.075c2.762-3.626,5.363-7.235,7.726-10.725
	c1.456-2.157,2.928-4.425,4.375-6.739c6.254-10.017,11.456-20.286,15.457-30.524c2.475-6.332,4.365-12.027,5.776-17.405
	c0.958-3.644,1.789-7.384,2.475-11.121c2.812-15.399,3.155-31.305,1.008-47.279c-1.129-8.362-2.953-16.906-5.423-25.396
	c-1.265-4.357-2.727-8.785-4.334-13.159c-2.691-7.318-5.947-14.359-9.677-20.926c-18.678-32.883-48.529-52.947-81.898-55.046
	c-9.526-0.6-19.328,0.262-29.101,2.573c-6.723,1.587-13.537,3.886-20.245,6.826c-0.126,0.056-0.247,0.116-0.373,0.177l-0.277,0.134
	c-2.177,0.97-4.098,1.885-5.871,2.797c-1.003,0.514-1.976,1.064-2.948,1.615l-0.877,0.491c-0.307,0.174-0.625,0.343-0.937,0.514
	c-0.494,0.265-0.988,0.532-1.472,0.814c-0.196,0.119-0.317,0.328-0.317,0.557c0,0.285,0.187,0.527,0.444,0.613
	c9.455,3.384,16.929,9.321,22.226,17.644c0,0.003,0,0.005,0.005,0.005c43.227,66.589,29.101,153.798-34.347,212.069
	c-44.013,39.886-101.639,39.999-142.221,33.067c-32.911-5.143-60.197-21.235-89.085-38.27c-2.565-1.512-5.136-3.029-7.711-4.538
	c-0.005-0.003-0.156-0.091-0.161-0.093c-0.267-0.143-0.6-0.086-0.802,0.144c-0.197,0.229-0.212,0.567-0.025,0.811
	C517.217,867.339,517.59,867.798,517.968,868.257z"/>
<path style="fill:#F5A268;" d="M1328.893,1106.656l-0.247-0.214c-4.833-4.302-9.752-8.913-14.621-13.706
	c-9.183-9.037-21.853-13.439-34.78-12.066c-12.781,1.353-24.121,8.207-31.101,18.804l-0.206,0.31
	c-9.621,14.901,2.086,28.947,12.413,41.339c1.028,1.238,2.046,2.452,3.019,3.649c4.228,5.193,8.684,9.575,12.998,13.814
	c12.927,12.716,23.143,22.76,13.266,43.149c-4.924,10.168-7.757,17.188-10.751,24.623c-2.691,6.665-5.468,13.56-9.903,22.926
	c-4.193,8.856-3.271,15.863,2.46,18.751c1.698,0.855,3.684,1.275,5.816,1.275c7.262,0,16.208-4.876,21.117-14.061
	c1.734-3.251,4.274-7.305,7.207-11.998c10.095-16.13,25.341-40.503,38.818-78.915
	C1351.537,1143.972,1345.454,1121.333,1328.893,1106.656z"/>
<path style="fill:#F5A268;" d="M1312.297,1503.427c-5.504-19.346-14.712-51.727-33.995-89.204
	c-9.873-19.187-30.481-30.328-52.531-28.413l-0.332,0.028c-6.411,0.552-13.139,0.953-20.003,1.19
	c-12.872,0.451-24.781,6.632-32.674,16.956c-7.811,10.213-10.634,23.156-7.736,35.514l0.086,0.358
	c4.198,17.239,22.453,18.396,38.56,19.419c1.598,0.101,3.17,0.202,4.702,0.315c6.688,0.502,12.942,0.28,18.97,0.066
	c18.134-0.645,32.437-1.149,40.45,20.044c3.962,10.478,8.104,19.091,12.106,27.42c3.785,7.875,7.696,16.017,11.481,25.767
	c2.923,7.532,7.328,11.675,12.166,11.675c1.029,0,2.077-0.186,3.135-0.567c7.877-2.84,13.502-15.566,9.238-28.346
	C1314.892,1512.554,1313.748,1508.528,1312.297,1503.427z"/>
<path style="fill:#F5A268;" d="M1588.866,929.413c-9.551-8.611-22.241-12.459-34.775-10.579l-0.358,0.055
	c-17.524,2.797-20.15,20.893-22.468,36.859c-0.232,1.59-0.459,3.155-0.696,4.675c-1.043,6.62-1.325,12.867-1.598,18.904
	c-0.822,18.116-1.471,32.427-23.239,38.699c-10.876,3.135-20.654,6.632-30.103,10.014c-8.739,3.125-17.771,6.358-27.689,9.311
	c-9.39,2.795-13.991,8.162-12.308,14.356c1.804,6.653,10.422,12.325,20.714,12.325c2.202,0,4.485-0.26,6.798-0.826
	c3.286-0.809,7.752-1.671,13.406-2.762c20.598-3.976,55.071-10.631,93.591-26.664c19.922-8.29,32.704-27.941,32.562-50.069
	l-0.005-0.328c-0.036-6.398,0.111-13.139,0.428-20.039C1603.718,950.485,1598.522,938.117,1588.866,929.413z"/>
</svg>
