<?xml version="1.0" encoding="utf-8"?>
<!-- Generator: Adobe Illustrator 27.5.0, SVG Export Plug-In . SVG Version: 6.00 Build 0)  -->
<svg version="1.1" xmlns="http://www.w3.org/2000/svg" xmlns:xlink="http://www.w3.org/1999/xlink" x="0px" y="0px"
	 viewBox="0 0 3710 3710" style="enable-background:new 0 0 3710 3710;" xml:space="preserve">
<g id="Background">
	<g>
		<g>
			<rect style="fill:#FFFFFF;" width="3710" height="3710"/>
		</g>
	</g>
</g>
<g id="Illustration">
	<g>
		<linearGradient id="SVGID_1_" gradientUnits="userSpaceOnUse" x1="3491.5469" y1="3711.6631" x2="1504.5967" y2="1596.5231">
			<stop  offset="0" style="stop-color:#DAE3FE"/>
			<stop  offset="1" style="stop-color:#E9EFFD"/>
		</linearGradient>
		<path style="fill:url(#SVGID_1_);" d="M2894.967,2863.078c-73.35,75.607-138.981,120.051-189.231,153.603
			c-490.073,327.226-1050.28,232.912-1223.482,200.675c-279.44-52.01-515.326-88.7-717.995-271.803
			c-460.524-416.065-438.125-1284.007-86.228-1821.66c41.724-63.75,393.088-584.58,954.508-657.969
			c13.731-1.795,23.977-2.817,32.951-3.767c86.85-9.195,625.044-57.727,1063.888,309.936
			c62.819,52.629,163.911,147.558,257.657,292.342C3329.812,1593.825,3330.898,2413.737,2894.967,2863.078z"/>
		<g>
			<g style="opacity:0.64;">
				<path style="fill:#91B3FA;" d="M451.703,1124.191c-3.358-0.567-6.084-3.284-6.504-6.834c-0.504-4.24-0.949-8.494-1.331-12.758
					c-0.386-4.331,2.814-8.154,7.147-8.54c4.309-0.396,8.15,2.812,8.542,7.145c0.364,4.109,0.792,8.207,1.279,12.291
					c0.516,4.318-2.569,8.237-6.889,8.75C453.182,1124.336,452.428,1124.313,451.703,1124.191z"/>
				<path style="fill:#91B3FA;" d="M448.666,1069.93c-3.743-0.632-6.579-3.899-6.554-7.816c0.058-8.698,0.375-17.503,0.948-26.168
					c0.287-4.339,4.038-7.624,8.376-7.338c4.367,0.277,7.628,4.039,7.338,8.377c-0.552,8.355-0.859,16.844-0.915,25.232
					c-0.029,4.348-3.577,7.851-7.924,7.822C449.502,1070.037,449.078,1070,448.666,1069.93z M454.334,1002.719
					c-4.265-0.72-7.156-4.748-6.462-9.023l0.465-2.813c1.281-7.591,2.788-15.293,4.472-22.889c0.944-4.245,5.084-6.965,9.394-5.98
					c4.245,0.943,6.923,5.147,5.982,9.393c-1.631,7.336-3.083,14.771-4.32,22.098l-0.448,2.71c-0.697,4.293-4.739,7.209-9.032,6.514
					C454.367,1002.725,454.349,1002.722,454.334,1002.719z M470.162,937.167c-0.373-0.063-0.748-0.154-1.12-0.275
					c-4.138-1.338-6.409-5.777-5.071-9.915c2.678-8.285,5.631-16.58,8.776-24.655c1.579-4.054,6.149-6.049,10.195-4.48
					c4.054,1.58,6.06,6.143,4.48,10.195c-3.033,7.79-5.882,15.792-8.466,23.784C477.741,935.587,473.954,937.807,470.162,937.167z
					 M495.767,874.792c-0.761-0.128-1.512-0.371-2.237-0.735c-3.884-1.958-5.443-6.693-3.486-10.576
					c3.902-7.74,8.097-15.484,12.466-23.013c2.186-3.766,7.007-5.034,10.761-2.861c3.761,2.184,5.041,7.002,2.859,10.762
					c-4.214,7.265-8.261,14.734-12.023,22.201C502.513,873.73,499.082,875.352,495.767,874.792z M530.683,817.108
					c-1.143-0.193-2.265-0.645-3.272-1.367c-3.534-2.534-4.344-7.452-1.811-10.986c5.067-7.066,10.415-14.077,15.892-20.84
					c2.742-3.38,7.693-3.901,11.076-1.161c3.378,2.737,3.898,7.695,1.162,11.075c-5.287,6.524-10.444,13.288-15.331,20.102
					C536.589,816.459,533.555,817.593,530.683,817.108z M574.123,765.475c-1.535-0.259-3.008-0.974-4.201-2.147
					c-3.104-3.047-3.145-8.033-0.098-11.134c6.102-6.211,12.459-12.312,18.898-18.135c3.222-2.917,8.196-2.672,11.12,0.556
					c2.918,3.225,2.667,8.205-0.558,11.121c-6.208,5.618-12.342,11.503-18.228,17.494
					C579.183,765.139,576.574,765.888,574.123,765.475z M624.964,721.133c-1.929-0.326-3.74-1.366-5.002-3.058
					c-2.599-3.486-1.879-8.42,1.607-11.019c6.973-5.199,14.186-10.254,21.439-15.025c3.635-2.392,8.512-1.381,10.906,2.249
					c2.387,3.633,1.382,8.517-2.253,10.905c-6.994,4.603-13.953,9.48-20.682,14.495
					C629.188,721.019,627.008,721.478,624.964,721.133z M681.972,685.083c-2.332-0.394-4.461-1.828-5.653-4.078
					c-2.037-3.842-0.572-8.607,3.269-10.645c7.68-4.068,15.575-7.964,23.461-11.574c3.949-1.81,8.628-0.074,10.437,3.883
					c1.809,3.955,0.072,8.628-3.883,10.437c-7.613,3.483-15.228,7.241-22.638,11.17
					C685.372,685.119,683.622,685.361,681.972,685.083z M743.792,658.154c-2.745-0.463-5.158-2.371-6.134-5.186
					c-1.424-4.109,0.749-8.595,4.857-10.02c8.197-2.845,16.591-5.483,24.944-7.846c4.187-1.187,8.536,1.251,9.72,5.434
					c1.184,4.185-1.251,8.537-5.434,9.72c-8.061,2.279-16.159,4.827-24.068,7.569C746.385,658.275,745.053,658.367,743.792,658.154z
					 M1152.243,723.206c-1.213-0.205-2.4-0.698-3.447-1.494c-6.668-5.067-13.583-10.005-20.549-14.677
					c-3.612-2.422-4.577-7.314-2.155-10.926c2.422-3.614,7.314-4.577,10.926-2.155c7.224,4.844,14.392,9.964,21.307,15.216
					c3.462,2.63,4.137,7.572,1.506,11.035C1157.995,722.62,1155.039,723.678,1152.243,723.206z M808.98,641.019
					c-3.175-0.536-5.825-3.003-6.435-6.358c-0.778-4.278,2.06-8.377,6.337-9.156c8.541-1.553,17.235-2.869,25.839-3.912
					c4.3-0.53,8.241,2.55,8.766,6.868c0.522,4.316-2.552,8.241-6.87,8.765c-8.296,1.008-16.68,2.277-24.918,3.774
					C810.773,641.17,809.856,641.167,808.98,641.019z M1095.538,686.687c-0.828-0.14-1.646-0.415-2.426-0.835
					c-7.382-3.982-14.977-7.792-22.572-11.326c-3.942-1.835-5.65-6.519-3.815-10.46c1.831-3.94,6.497-5.655,10.461-3.818
					c7.875,3.664,15.746,7.616,23.4,11.743c3.828,2.066,5.259,6.841,3.193,10.669
					C1102.135,685.706,1098.774,687.233,1095.538,686.687z M876.006,634.136c-3.643-0.615-6.456-3.738-6.552-7.569
					c-0.108-4.348,3.331-7.96,7.678-8.067c8.696-0.215,17.501-0.173,26.172,0.126c4.328,0.138,7.747,3.794,7.597,8.14
					c-0.147,4.347-3.794,7.747-8.139,7.599c-8.361-0.289-16.854-0.33-25.243-0.122C877.003,634.255,876.497,634.219,876.006,634.136
					z M1033.879,659.355c-0.443-0.075-0.885-0.188-1.324-0.344c-7.901-2.795-15.993-5.395-24.049-7.728
					c-4.176-1.208-6.583-5.575-5.372-9.751c1.21-4.177,5.579-6.587,9.753-5.374c8.348,2.415,16.734,5.109,24.919,8.006
					c4.101,1.45,6.248,5.95,4.798,10.049C1041.309,657.875,1037.582,659.98,1033.879,659.355z M943.346,637.684
					c-4.152-0.701-7.043-4.57-6.49-8.783c0.562-4.312,4.516-7.351,8.825-6.787c8.579,1.119,17.248,2.508,25.84,4.141
					c4.273,0.812,7.078,4.933,6.266,9.206c-0.809,4.274-5.075,7.135-9.202,6.267c-8.302-1.578-16.664-2.916-24.941-3.998
					C943.543,637.716,943.446,637.701,943.346,637.684z"/>
				<path style="fill:#91B3FA;" d="M1193.609,758.938c-1.532-0.259-2.999-0.97-4.193-2.138c-2.939-2.879-5.925-5.72-8.956-8.519
					c-3.192-2.95-3.39-7.932-0.442-11.126c2.957-3.194,7.937-3.389,11.129-0.442c3.144,2.903,6.237,5.849,9.289,8.838
					c3.108,3.044,3.158,8.029,0.114,11.135C1198.677,758.599,1196.063,759.352,1193.609,758.938z"/>
			</g>
			<g style="opacity:0.64;">
				<path style="fill:#91B3FA;" d="M1325.612,1070.35c-3.709-0.626-6.538-3.844-6.555-7.733c-0.014-4.129-0.092-8.25-0.228-12.361
					c-0.143-4.348,3.263-7.987,7.611-8.131c4.321-0.133,7.984,3.263,8.129,7.61c0.141,4.264,0.218,8.538,0.238,12.821
					c0.015,4.348-3.496,7.887-7.844,7.905C1326.504,1070.462,1326.052,1070.425,1325.612,1070.35z"/>
				<path style="fill:#91B3FA;" d="M806.585,1503.412c-0.049-0.008-0.097-0.016-0.145-0.026c-7.492-1.408-15.045-3.026-22.452-4.81
					l-2.723-0.665c-4.222-1.045-6.798-5.315-5.752-9.537c1.046-4.22,5.391-6.77,9.536-5.749l2.625,0.64
					c7.152,1.724,14.443,3.285,21.672,4.644c4.275,0.803,7.089,4.918,6.287,9.193
					C814.839,1501.327,810.807,1504.125,806.585,1503.412z M847.286,1509.108c-4.022-0.679-6.904-4.358-6.521-8.487
					c0.4-4.331,4.235-7.517,8.566-7.117c8.219,0.76,16.562,1.289,24.795,1.573c4.337,0.14,7.751,3.794,7.597,8.14
					c-0.147,4.347-3.794,7.748-8.139,7.599c-8.535-0.294-17.182-0.842-25.703-1.63
					C847.681,1509.167,847.483,1509.141,847.286,1509.108z M742.438,1486.328c-0.431-0.073-0.861-0.183-1.288-0.331
					c-8.099-2.821-16.2-5.909-24.08-9.176c-4.017-1.666-5.925-6.274-4.258-10.291c1.664-4.018,6.278-5.927,10.289-4.257
					c7.6,3.151,15.417,6.13,23.229,8.851c4.107,1.431,6.275,5.919,4.846,10.026C749.894,1484.83,746.156,1486.955,742.438,1486.328z
					 M913.639,1510.183c-3.533-0.597-6.317-3.562-6.543-7.292c-0.262-4.341,3.047-8.072,7.386-8.333
					c8.234-0.495,16.561-1.241,24.742-2.213c4.314-0.518,8.238,2.571,8.747,6.89c0.516,4.318-2.569,8.235-6.889,8.749
					c-8.483,1.007-17.114,1.781-25.654,2.293C914.818,1510.315,914.218,1510.281,913.639,1510.183z M681.576,1459.8
					c-0.807-0.136-1.61-0.403-2.375-0.808c-7.562-4.006-15.102-8.286-22.414-12.723c-3.715-2.257-4.9-7.099-2.644-10.817
					c2.255-3.715,7.086-4.91,10.818-2.646c7.048,4.28,14.318,8.406,21.611,12.27c3.843,2.035,5.309,6.801,3.272,10.643
					C688.215,1458.797,684.833,1460.349,681.576,1459.8z M979.393,1501.157c-3.085-0.521-5.687-2.861-6.388-6.104
					c-0.92-4.251,1.784-8.441,6.034-9.359c8.045-1.738,16.152-3.735,24.094-5.936c4.198-1.161,8.534,1.295,9.693,5.484
					c1.161,4.19-1.293,8.53-5.485,9.691c-8.234,2.283-16.637,4.354-24.98,6.155C981.355,1501.305,980.351,1501.319,979.393,1501.157
					z M625.46,1424.335c-1.189-0.201-2.349-0.679-3.386-1.45c-6.864-5.109-13.664-10.486-20.214-15.978
					c-3.331-2.794-3.765-7.762-0.972-11.093c2.799-3.335,7.769-3.764,11.094-0.974c6.315,5.297,12.876,10.483,19.498,15.415
					c3.486,2.596,4.21,7.529,1.612,11.017C631.265,1423.726,628.284,1424.812,625.46,1424.335z M1042.985,1482.279
					c-2.66-0.449-5.022-2.256-6.053-4.961c-1.547-4.064,0.49-8.614,4.551-10.164c7.718-2.941,15.436-6.143,22.944-9.51
					c3.966-1.781,8.626-0.01,10.408,3.959c1.779,3.969,0.007,8.628-3.962,10.408c-7.78,3.492-15.782,6.809-23.777,9.859
					C1045.736,1482.388,1044.322,1482.505,1042.985,1482.279z M1103.027,1454.031c-2.259-0.381-4.332-1.739-5.548-3.886
					c-2.141-3.783-0.812-8.589,2.972-10.731c7.184-4.067,14.34-8.394,21.27-12.858c3.651-2.358,8.53-1.301,10.882,2.353
					c2.356,3.656,1.302,8.528-2.355,10.884c-7.179,4.627-14.592,9.111-22.035,13.324
					C1106.575,1454.046,1104.747,1454.322,1103.027,1454.031z M1158.154,1417.082c-1.862-0.314-3.621-1.298-4.882-2.902
					c-2.682-3.421-2.087-8.371,1.333-11.056c6.484-5.09,12.911-10.443,19.103-15.909c3.256-2.877,8.227-2.574,11.113,0.689
					c2.878,3.26,2.571,8.235-0.691,11.115c-6.416,5.667-13.079,11.216-19.8,16.493
					C1162.514,1416.939,1160.265,1417.439,1158.154,1417.082z M1207.107,1372.26c-1.477-0.249-2.898-0.923-4.072-2.024
					c-3.172-2.977-3.329-7.959-0.352-11.13c5.644-6.013,11.193-12.277,16.488-18.62c2.79-3.338,7.758-3.775,11.092-0.996
					c3.338,2.787,3.785,7.752,0.998,11.091c-5.493,6.575-11.243,13.07-17.096,19.303
					C1212.289,1371.881,1209.618,1372.684,1207.107,1372.26z M1248.737,1320.539c-1.092-0.184-2.163-0.604-3.139-1.272
					c-3.584-2.46-4.497-7.361-2.039-10.947c4.67-6.805,9.206-13.844,13.479-20.921c2.25-3.722,7.102-4.912,10.81-2.67
					c3.723,2.247,4.918,7.088,2.67,10.81c-4.43,7.338-9.13,14.634-13.971,21.69
					C1254.753,1319.841,1251.667,1321.034,1248.737,1320.539z M1282.027,1263.083c-0.713-0.12-1.421-0.341-2.108-0.671
					c-3.917-1.887-5.566-6.592-3.678-10.511c3.576-7.433,6.982-15.067,10.124-22.687c1.656-4.024,6.256-5.944,10.28-4.28
					c4.019,1.656,5.937,6.258,4.279,10.278c-3.255,7.901-6.787,15.813-10.496,23.519
					C1288.872,1261.965,1285.396,1263.652,1282.027,1263.083z M1306.202,1201.287c-0.333-0.056-0.67-0.136-1.005-0.238
					c-4.158-1.273-6.497-5.676-5.221-9.834c2.414-7.887,4.635-15.948,6.599-23.961c1.034-4.224,5.317-6.846,9.521-5.772
					c4.224,1.036,6.81,5.3,5.773,9.523c-2.034,8.298-4.336,16.65-6.838,24.819
					C1313.862,1199.649,1310.042,1201.935,1306.202,1201.287z M1320.842,1136.551c-4.219-0.712-7.109-4.675-6.476-8.926
					c1.217-8.153,2.21-16.456,2.955-24.675c0.391-4.331,4.218-7.525,8.55-7.133c4.348,0.411,7.526,4.22,7.131,8.551
					c-0.771,8.521-1.8,17.129-3.058,25.582c-0.642,4.301-4.649,7.268-8.951,6.626
					C1320.942,1136.568,1320.893,1136.56,1320.842,1136.551z"/>
				<path style="fill:#91B3FA;" d="M575.193,1380.574c-1.577-0.266-3.086-1.012-4.292-2.236c-3.001-3.046-5.955-6.13-8.865-9.256
					c-2.963-3.183-2.783-8.165,0.4-11.128c3.183-2.964,8.166-2.787,11.131,0.4c2.804,3.014,5.658,5.991,8.553,8.929
					c3.052,3.098,3.015,8.083-0.083,11.136C580.164,1380.265,577.601,1380.98,575.193,1380.574z"/>
			</g>
			<g>
				<path style="fill:#91B3FA;" d="M615.161,1261.51c1.11,1.951,3.336,2.983,5.542,2.57l62.944-11.79
					c20.326,21.937,44.296,40.792,71.33,55.5l4.086,63.866c0.143,2.241,1.692,4.143,3.856,4.738l74.067,20.354
					c2.165,0.594,4.468-0.25,5.736-2.101l36.148-52.811c30.755,1.171,60.993-2.785,89.674-11.256l48.08,42.299
					c1.685,1.482,4.126,1.733,6.077,0.623l66.766-37.982c1.952-1.111,2.984-3.336,2.57-5.542l-11.79-62.943
					c21.937-20.325,40.791-44.296,55.499-71.331l63.867-4.086c2.24-0.143,4.142-1.692,4.737-3.856l20.354-74.069
					c0.595-2.164-0.249-4.468-2.102-5.735l-52.811-36.148c1.172-30.755-2.784-60.993-11.256-89.674l42.3-48.081
					c1.482-1.685,1.732-4.125,0.623-6.076l-37.982-66.766c-1.109-1.952-3.336-2.983-5.542-2.57l-62.944,11.79
					c-20.325-21.938-44.296-40.792-71.331-55.5l-4.085-63.868c-0.143-2.24-1.691-4.142-3.855-4.737l-74.069-20.354
					c-2.164-0.595-4.468,0.249-5.735,2.102l-36.148,52.811c-30.754-1.173-60.993,2.785-89.675,11.256l-48.079-42.299
					c-1.685-1.484-4.127-1.733-6.077-0.624l-66.766,37.982c-1.951,1.11-2.983,3.335-2.57,5.542l11.79,62.943
					c-21.937,20.326-40.791,44.297-55.499,71.331l-63.868,4.085c-2.239,0.142-4.142,1.692-4.736,3.857l-20.354,74.067
					c-0.595,2.165,0.249,4.468,2.101,5.736l52.811,36.148c-1.171,30.754,2.786,60.992,11.256,89.674l-42.299,48.081
					c-1.483,1.685-1.733,4.125-0.623,6.077L615.161,1261.51z"/>
				<g>
					<path style="fill:#BDD0FB;" d="M876.763,1134.817c-15.668-2.645-30.016-10.207-41.214-21.884
						c-13.777-14.365-21.132-33.232-20.715-53.128c0.414-19.897,8.554-38.44,22.916-52.215
						c14.366-13.775,33.232-21.132,53.128-20.715c41.101,0.865,73.789,34.974,72.932,76.047c-0.86,41.074-34.974,73.79-76.045,72.93
						C884.044,1135.773,880.366,1135.425,876.763,1134.817z M899.665,1000.321c-2.951-0.498-5.971-0.788-9.049-0.852
						c-16.533-0.345-32.21,5.767-44.146,17.213c-11.936,11.446-18.698,26.855-19.043,43.386
						c-0.345,16.532,5.768,32.209,17.213,44.143c11.443,11.932,26.841,18.689,43.385,19.044
						c34.127,0.714,62.472-26.472,63.189-60.599C951.861,1031.606,929.418,1005.343,899.665,1000.321z"/>
				</g>
				<g>
					<path style="fill:#BDD0FB;" d="M859.431,1246.342c-6.242-1.054-12.476-2.429-18.71-4.141
						c-9.241-2.541-18.278-5.774-26.984-9.65c-0.072-0.033-0.145-0.065-0.214-0.097c-0.383-0.171-0.763-0.341-1.142-0.514
						c-0.055-0.025-0.107-0.049-0.159-0.072c0,0,0,0-0.003,0c-0.049-0.024-0.095-0.044-0.144-0.068
						c-0.183-0.082-0.368-0.167-0.551-0.25c-0.026-0.013-0.055-0.026-0.084-0.039c-0.072-0.034-0.144-0.068-0.217-0.101
						c-0.023-0.012-0.049-0.022-0.072-0.034c-0.553-0.256-1.102-0.513-1.65-0.775c-0.194-0.092-0.387-0.184-0.58-0.277
						c-1.189-0.569-2.37-1.152-3.542-1.744c-0.675-0.342-1.347-0.686-2.018-1.036c-1.239-0.646-1.87-2.005-1.649-3.313
						c0.054-0.318,0.157-0.633,0.314-0.934c0.803-1.54,2.701-2.141,4.25-1.337c11.425,5.954,23.578,10.722,36.116,14.167
						c46.926,12.903,96.072,6.744,138.367-17.319c42.302-24.065,72.702-63.162,85.596-110.089c1.658-6.032,2.99-12.077,4.01-18.115
						c15.342-90.98-40.574-180.885-131.415-205.848c-46.931-12.891-96.069-6.743-138.367,17.319
						c-42.302,24.065-72.702,63.16-85.596,110.088c-1.642,5.973-2.974,12.003-3.996,18.073c-4.432,26.295-3.066,53.27,4.102,78.98
						c0.128,0.461,0.146,0.928,0.071,1.37c-0.197,1.166-1.046,2.17-2.261,2.51c-1.673,0.469-3.416-0.516-3.879-2.188
						c-7.415-26.604-8.831-54.513-4.245-81.717c1.056-6.277,2.435-12.519,4.132-18.695c13.343-48.55,44.791-88.999,88.556-113.895
						c43.765-24.898,94.622-31.254,143.151-17.92c93.983,25.828,151.832,118.841,135.96,212.966
						c-1.055,6.248-2.432,12.502-4.146,18.741C1046.599,1204.377,953.563,1262.232,859.431,1246.342z"/>
				</g>
			</g>
		</g>
		<g>
			<g style="opacity:0.64;">
				<path style="fill:#91B3FA;" d="M1270.094,935.659c-2.013-0.34-3.647-1.969-3.9-4.097c-0.302-2.542-0.569-5.092-0.798-7.649
					c-0.231-2.596,1.687-4.889,4.285-5.12c2.583-0.237,4.886,1.686,5.121,4.284c0.218,2.463,0.475,4.92,0.766,7.369
					c0.309,2.589-1.54,4.938-4.13,5.246C1270.98,935.746,1270.528,935.732,1270.094,935.659z"/>
				<path style="fill:#91B3FA;" d="M1268.273,903.128c-2.244-0.379-3.944-2.337-3.929-4.686c0.035-5.214,0.225-10.494,0.569-15.689
					c0.172-2.601,2.421-4.57,5.021-4.399c2.618,0.166,4.573,2.421,4.4,5.023c-0.331,5.009-0.515,10.099-0.549,15.127
					c-0.017,2.607-2.145,4.707-4.751,4.69C1268.774,903.193,1268.52,903.17,1268.273,903.128z M1271.671,862.834
					c-2.557-0.431-4.29-2.847-3.874-5.41l0.279-1.687c0.768-4.551,1.671-9.168,2.681-13.723c0.566-2.545,3.048-4.176,5.632-3.585
					c2.545,0.565,4.151,3.086,3.586,5.631c-0.978,4.398-1.848,8.855-2.59,13.248l-0.269,1.625c-0.418,2.574-2.841,4.322-5.415,3.905
					C1271.691,862.837,1271.68,862.835,1271.671,862.834z M1281.161,823.534c-0.224-0.038-0.448-0.093-0.672-0.165
					c-2.481-0.802-3.842-3.463-3.04-5.944c1.605-4.967,3.376-9.94,5.261-14.781c0.947-2.43,3.687-3.626,6.112-2.686
					c2.43,0.947,3.633,3.683,2.686,6.112c-1.819,4.67-3.526,9.468-5.076,14.259C1285.704,822.586,1283.433,823.917,1281.161,823.534
					z M1296.511,786.138c-0.456-0.077-0.907-0.222-1.341-0.441c-2.328-1.174-3.263-4.012-2.09-6.341
					c2.339-4.64,4.855-9.283,7.474-13.797c1.31-2.258,4.201-3.018,6.452-1.715c2.255,1.309,3.022,4.198,1.714,6.452
					c-2.527,4.355-4.953,8.833-7.208,13.31C1300.555,785.501,1298.499,786.474,1296.511,786.138z M1317.444,751.555
					c-0.685-0.116-1.358-0.386-1.962-0.819c-2.119-1.519-2.604-4.468-1.085-6.587c3.038-4.236,6.244-8.439,9.528-12.494
					c1.644-2.027,4.612-2.339,6.641-0.696c2.025,1.641,2.337,4.613,0.697,6.64c-3.17,3.911-6.261,7.966-9.191,12.052
					C1320.985,751.166,1319.166,751.846,1317.444,751.555z M1343.488,720.6c-0.92-0.155-1.803-0.584-2.519-1.287
					c-1.861-1.827-1.886-4.816-0.059-6.675c3.658-3.724,7.47-7.382,11.33-10.872c1.932-1.749,4.914-1.602,6.667,0.333
					c1.749,1.934,1.599,4.919-0.334,6.667c-3.722,3.368-7.399,6.896-10.928,10.488
					C1346.521,720.398,1344.957,720.848,1343.488,720.6z M1373.968,694.016c-1.156-0.195-2.243-0.819-2.999-1.833
					c-1.558-2.09-1.126-5.048,0.964-6.606c4.18-3.117,8.505-6.147,12.854-9.008c2.179-1.434,5.103-0.828,6.538,1.349
					c1.431,2.178,0.829,5.106-1.35,6.538c-4.193,2.759-8.365,5.683-12.4,8.69C1376.5,693.948,1375.193,694.222,1373.968,694.016z
					 M1408.146,672.403c-1.398-0.236-2.674-1.096-3.389-2.445c-1.221-2.304-0.343-5.16,1.96-6.382
					c4.604-2.439,9.337-4.775,14.066-6.939c2.368-1.085,5.173-0.044,6.257,2.328c1.085,2.371,0.043,5.173-2.328,6.257
					c-4.564,2.088-9.13,4.341-13.572,6.697C1410.184,672.424,1409.135,672.57,1408.146,672.403z M1445.208,656.258
					c-1.646-0.278-3.093-1.422-3.677-3.109c-0.854-2.463,0.449-5.153,2.912-6.007c4.915-1.705,9.947-3.287,14.954-4.704
					c2.51-0.711,5.117,0.75,5.827,3.258c0.71,2.509-0.75,5.118-3.258,5.827c-4.833,1.367-9.688,2.894-14.429,4.538
					C1446.763,656.331,1445.965,656.385,1445.208,656.258z M1690.085,695.259c-0.727-0.123-1.438-0.419-2.067-0.896
					c-3.998-3.038-8.143-5.998-12.32-8.799c-2.165-1.452-2.744-4.385-1.292-6.55c1.452-2.166,4.385-2.744,6.55-1.292
					c4.331,2.904,8.628,5.974,12.774,9.122c2.075,1.577,2.48,4.539,0.903,6.615C1693.533,694.907,1691.762,695.542,1690.085,695.259
					z M1484.29,645.986c-1.904-0.321-3.492-1.8-3.858-3.812c-0.467-2.565,1.235-5.022,3.799-5.489
					c5.12-0.931,10.333-1.72,15.491-2.345c2.578-0.318,4.941,1.529,5.255,4.118c0.313,2.588-1.53,4.941-4.118,5.255
					c-4.974,0.604-10,1.365-14.939,2.263C1485.365,646.076,1484.816,646.074,1484.29,645.986z M1656.089,673.364
					c-0.496-0.084-0.987-0.249-1.455-0.501c-4.426-2.387-8.979-4.671-13.532-6.79c-2.363-1.1-3.387-3.908-2.287-6.271
					c1.098-2.362,3.895-3.39,6.272-2.289c4.722,2.197,9.44,4.566,14.029,7.041c2.295,1.238,3.153,4.101,1.914,6.396
					C1660.044,672.776,1658.029,673.692,1656.089,673.364z M1524.474,641.859c-2.184-0.369-3.871-2.241-3.928-4.538
					c-0.065-2.607,1.997-4.772,4.603-4.836c5.213-0.129,10.492-0.104,15.691,0.075c2.595,0.083,4.645,2.275,4.555,4.88
					c-0.088,2.606-2.275,4.645-4.88,4.556c-5.013-0.173-10.104-0.198-15.134-0.073
					C1525.072,641.93,1524.769,641.908,1524.474,641.859z M1619.123,656.978c-0.266-0.045-0.531-0.113-0.794-0.206
					c-4.737-1.676-9.588-3.234-14.418-4.633c-2.503-0.725-3.947-3.342-3.221-5.846c0.726-2.504,3.345-3.949,5.847-3.221
					c5.005,1.448,10.032,3.063,14.94,4.799c2.458,0.869,3.746,3.567,2.877,6.025
					C1623.577,656.091,1621.343,657.353,1619.123,656.978z M1564.846,643.986c-2.489-0.42-4.222-2.74-3.891-5.266
					c0.337-2.585,2.708-4.407,5.291-4.069c5.144,0.671,10.34,1.503,15.492,2.482c2.562,0.487,4.243,2.958,3.757,5.519
					c-0.485,2.562-3.043,4.278-5.517,3.757c-4.977-0.946-9.99-1.748-14.953-2.397
					C1564.964,644.005,1564.906,643.996,1564.846,643.986z"/>
				<path style="fill:#91B3FA;" d="M1714.885,716.681c-0.918-0.155-1.798-0.581-2.514-1.282c-1.762-1.726-3.552-3.429-5.369-5.108
					c-1.914-1.769-2.032-4.756-0.265-6.67c1.773-1.915,4.758-2.032,6.672-0.265c1.885,1.74,3.739,3.507,5.569,5.298
					c1.863,1.825,1.894,4.813,0.068,6.676C1717.923,716.477,1716.356,716.929,1714.885,716.681z"/>
			</g>
			<g style="opacity:0.64;">
				<path style="fill:#91B3FA;" d="M1794.025,903.38c-2.224-0.375-3.92-2.305-3.93-4.636c-0.009-2.476-0.055-4.946-0.137-7.411
					c-0.086-2.606,1.957-4.788,4.563-4.875c2.591-0.08,4.786,1.956,4.874,4.562c0.085,2.557,0.131,5.119,0.143,7.687
					c0.009,2.607-2.096,4.728-4.703,4.739C1794.559,903.447,1794.288,903.425,1794.025,903.38z"/>
				<path style="fill:#91B3FA;" d="M1482.855,1163.012c-0.029-0.005-0.058-0.01-0.087-0.016c-4.492-0.844-9.02-1.814-13.46-2.884
					l-1.633-0.399c-2.531-0.626-4.076-3.187-3.448-5.718c0.627-2.53,3.232-4.059,5.717-3.447l1.573,0.383
					c4.288,1.033,8.659,1.969,12.993,2.784c2.563,0.481,4.25,2.949,3.769,5.512
					C1487.803,1161.762,1485.386,1163.439,1482.855,1163.012z M1507.255,1166.427c-2.411-0.407-4.139-2.613-3.91-5.088
					c0.24-2.596,2.539-4.507,5.135-4.267c4.927,0.456,9.929,0.773,14.865,0.943c2.6,0.084,4.647,2.275,4.555,4.88
					c-0.088,2.606-2.275,4.645-4.88,4.556c-5.117-0.177-10.301-0.505-15.409-0.977
					C1507.493,1166.462,1507.374,1166.447,1507.255,1166.427z M1444.397,1152.77c-0.258-0.044-0.516-0.11-0.773-0.199
					c-4.855-1.691-9.712-3.542-14.436-5.501c-2.408-0.999-3.552-3.761-2.553-6.169c0.997-2.409,3.764-3.554,6.168-2.552
					c4.556,1.889,9.243,3.675,13.927,5.307c2.462,0.858,3.762,3.549,2.905,6.011
					C1448.866,1151.872,1446.626,1153.146,1444.397,1152.77z M1547.036,1167.071c-2.118-0.358-3.787-2.135-3.922-4.371
					c-0.157-2.603,1.827-4.839,4.428-4.996c4.937-0.297,9.929-0.744,14.833-1.327c2.586-0.311,4.939,1.541,5.244,4.131
					c0.309,2.589-1.54,4.937-4.13,5.245c-5.086,0.604-10.26,1.068-15.38,1.375C1547.743,1167.15,1547.383,1167.13,1547.036,1167.071
					z M1407.908,1136.865c-0.484-0.082-0.965-0.241-1.424-0.484c-4.534-2.402-9.054-4.968-13.438-7.628
					c-2.227-1.353-2.938-4.256-1.585-6.485c1.352-2.227,4.248-2.944,6.486-1.586c4.225,2.566,8.584,5.04,12.956,7.356
					c2.304,1.22,3.183,4.078,1.962,6.381C1411.888,1136.264,1409.861,1137.195,1407.908,1136.865z M1586.457,1161.66
					c-1.849-0.312-3.41-1.716-3.83-3.659c-0.552-2.548,1.069-5.061,3.618-5.611c4.823-1.042,9.684-2.239,14.445-3.559
					c2.517-0.696,5.117,0.777,5.811,3.288c0.696,2.512-0.775,5.114-3.288,5.81c-4.936,1.369-9.974,2.61-14.976,3.69
					C1587.633,1161.749,1587.032,1161.757,1586.457,1161.66z M1374.265,1115.603c-0.713-0.12-1.409-0.407-2.03-0.869
					c-4.115-3.063-8.192-6.286-12.119-9.579c-1.997-1.675-2.257-4.653-0.583-6.65c1.678-1.999,4.658-2.256,6.651-0.584
					c3.786,3.176,7.719,6.285,11.69,9.242c2.09,1.556,2.524,4.514,0.966,6.605
					C1377.746,1115.238,1375.958,1115.889,1374.265,1115.603z M1624.582,1150.342c-1.595-0.269-3.011-1.353-3.629-2.974
					c-0.928-2.436,0.294-5.164,2.729-6.093c4.627-1.763,9.254-3.683,13.756-5.702c2.378-1.068,5.172-0.006,6.24,2.374
					c1.066,2.379,0.004,5.172-2.375,6.24c-4.664,2.094-9.462,4.082-14.255,5.911
					C1626.232,1150.408,1625.384,1150.478,1624.582,1150.342z M1660.579,1133.407c-1.355-0.229-2.597-1.042-3.326-2.33
					c-1.283-2.268-0.487-5.149,1.782-6.433c4.307-2.438,8.597-5.032,12.752-7.708c2.189-1.414,5.114-0.78,6.524,1.411
					c1.412,2.192,0.781,5.113-1.412,6.525c-4.304,2.774-8.748,5.462-13.211,7.988
					C1662.706,1133.415,1661.61,1133.581,1660.579,1133.407z M1693.629,1111.255c-1.116-0.188-2.171-0.778-2.927-1.74
					c-1.608-2.051-1.251-5.018,0.799-6.628c3.887-3.052,7.741-6.261,11.453-9.538c1.952-1.725,4.932-1.543,6.663,0.413
					c1.725,1.955,1.542,4.937-0.414,6.664c-3.846,3.398-7.841,6.724-11.87,9.888
					C1696.243,1111.169,1694.894,1111.469,1693.629,1111.255z M1722.977,1084.383c-0.885-0.15-1.738-0.553-2.441-1.214
					c-1.902-1.785-1.996-4.772-0.211-6.673c3.384-3.605,6.711-7.36,9.885-11.163c1.673-2.001,4.651-2.263,6.65-0.597
					c2.001,1.671,2.269,4.648,0.598,6.649c-3.293,3.942-6.74,7.836-10.249,11.573
					C1726.084,1084.156,1724.483,1084.637,1722.977,1084.383z M1747.936,1053.375c-0.655-0.11-1.297-0.362-1.882-0.763
					c-2.149-1.474-2.696-4.413-1.222-6.563c2.8-4.08,5.519-8.3,8.081-12.543c1.349-2.231,4.258-2.945,6.481-1.601
					c2.232,1.347,2.948,4.249,1.601,6.481c-2.656,4.399-5.474,8.774-8.376,13.004
					C1751.543,1052.956,1749.692,1053.672,1747.936,1053.375z M1767.894,1018.929c-0.427-0.072-0.852-0.205-1.264-0.402
					c-2.349-1.131-3.337-3.952-2.205-6.301c2.144-4.456,4.186-9.033,6.07-13.602c0.993-2.412,3.751-3.563,6.163-2.566
					c2.409,0.993,3.559,3.752,2.565,6.162c-1.952,4.737-4.069,9.48-6.292,14.1
					C1771.998,1018.258,1769.914,1019.269,1767.894,1018.929z M1782.387,981.88c-0.2-0.034-0.401-0.082-0.602-0.143
					c-2.493-0.763-3.895-3.403-3.13-5.896c1.447-4.728,2.779-9.561,3.956-14.365c0.62-2.532,3.188-4.105,5.708-3.46
					c2.532,0.621,4.083,3.177,3.461,5.709c-1.219,4.975-2.6,9.982-4.099,14.879C1786.98,980.898,1784.689,982.269,1782.387,981.88z
					 M1791.164,943.069c-2.529-0.427-4.262-2.803-3.882-5.351c0.73-4.888,1.325-9.866,1.772-14.794
					c0.234-2.596,2.529-4.511,5.126-4.277c2.606,0.246,4.512,2.53,4.275,5.127c-0.462,5.109-1.079,10.269-1.833,15.337
					c-0.385,2.578-2.787,4.357-5.366,3.972C1791.224,943.08,1791.195,943.075,1791.164,943.069z"/>
				<path style="fill:#91B3FA;" d="M1344.129,1089.367c-0.945-0.16-1.85-0.607-2.573-1.34c-1.799-1.826-3.57-3.675-5.315-5.549
					c-1.776-1.908-1.668-4.895,0.24-6.671c1.908-1.777,4.896-1.671,6.673,0.24c1.681,1.807,3.392,3.592,5.128,5.353
					c1.829,1.857,1.808,4.846-0.05,6.676C1347.109,1089.182,1345.573,1089.611,1344.129,1089.367z"/>
			</g>
			<g>
				<path style="fill:#91B3FA;" d="M1368.091,1017.986c0.666,1.169,2,1.789,3.323,1.541l37.736-7.069
					c12.186,13.152,26.557,24.456,42.764,33.273l2.449,38.289c0.086,1.344,1.015,2.484,2.312,2.841l44.405,12.203
					c1.298,0.356,2.679-0.15,3.439-1.26l21.672-31.661c18.438,0.702,36.567-1.67,53.762-6.748l28.825,25.36
					c1.01,0.889,2.474,1.039,3.643,0.373l40.028-22.771c1.17-0.666,1.789-2,1.541-3.323l-7.068-37.736
					c13.152-12.186,24.455-26.557,33.273-42.765l38.29-2.449c1.343-0.086,2.484-1.014,2.84-2.312l12.203-44.406
					c0.357-1.297-0.149-2.679-1.26-3.438l-31.661-21.672c0.703-18.438-1.669-36.567-6.748-53.762l25.36-28.826
					c0.888-1.01,1.038-2.473,0.373-3.643l-22.771-40.028c-0.665-1.17-2-1.789-3.323-1.541l-37.736,7.069
					c-12.185-13.153-26.557-24.456-42.764-33.274l-2.449-38.29c-0.086-1.343-1.014-2.483-2.312-2.84l-44.406-12.203
					c-1.297-0.357-2.678,0.149-3.438,1.26l-21.672,31.661c-18.438-0.703-36.567,1.67-53.763,6.748l-28.825-25.359
					c-1.01-0.89-2.474-1.039-3.643-0.374l-40.028,22.771c-1.169,0.666-1.788,2-1.541,3.323l7.068,37.736
					c-13.152,12.186-24.455,26.557-33.273,42.765l-38.29,2.449c-1.342,0.085-2.483,1.014-2.839,2.312l-12.203,44.405
					c-0.356,1.298,0.149,2.679,1.259,3.439l31.661,21.672c-0.702,18.438,1.67,36.566,6.748,53.762l-25.359,28.826
					c-0.889,1.01-1.039,2.473-0.374,3.643L1368.091,1017.986z"/>
				<g>
					<path style="fill:#BDD0FB;" d="M1524.928,942.03c-9.393-1.586-17.995-6.119-24.709-13.12
						c-8.26-8.612-12.669-19.923-12.419-31.852c0.248-11.929,5.128-23.046,13.739-31.305c8.613-8.259,19.923-12.669,31.852-12.419
						c24.641,0.518,44.238,20.968,43.725,45.592c-0.516,24.625-20.968,44.239-45.591,43.724
						C1529.293,942.603,1527.088,942.394,1524.928,942.03z M1538.658,861.396c-1.769-0.299-3.58-0.472-5.425-0.511
						c-9.912-0.207-19.311,3.458-26.467,10.319c-7.156,6.862-11.21,16.1-11.417,26.011c-0.207,9.911,3.458,19.31,10.32,26.465
						c6.86,7.153,16.092,11.205,26.01,11.417c20.46,0.428,37.454-15.87,37.883-36.331
						C1569.951,880.152,1556.496,864.407,1538.658,861.396z"/>
				</g>
				<g>
					<path style="fill:#BDD0FB;" d="M1514.537,1008.892c-3.742-0.632-7.48-1.456-11.217-2.482
						c-5.54-1.523-10.958-3.462-16.178-5.786c-0.043-0.02-0.087-0.039-0.128-0.058c-0.23-0.102-0.458-0.204-0.685-0.308
						c-0.033-0.015-0.064-0.029-0.096-0.043l-0.002,0c-0.029-0.014-0.057-0.026-0.087-0.041c-0.109-0.049-0.221-0.1-0.33-0.15
						c-0.015-0.008-0.033-0.016-0.05-0.023c-0.043-0.021-0.087-0.041-0.13-0.06c-0.014-0.007-0.03-0.013-0.043-0.021
						c-0.331-0.153-0.661-0.308-0.989-0.464c-0.116-0.055-0.232-0.11-0.348-0.166c-0.713-0.341-1.421-0.691-2.124-1.046
						c-0.405-0.205-0.808-0.411-1.21-0.621c-0.743-0.387-1.121-1.202-0.989-1.986c0.032-0.191,0.094-0.38,0.188-0.56
						c0.481-0.923,1.619-1.284,2.548-0.801c6.85,3.57,14.136,6.428,21.653,8.494c28.134,7.736,57.598,4.043,82.955-10.383
						c25.361-14.428,43.587-37.867,51.317-66.001c0.994-3.616,1.793-7.241,2.404-10.861c9.198-54.545-24.325-108.445-78.787-123.411
						c-28.137-7.729-57.596-4.043-82.955,10.383c-25.361,14.427-43.587,37.866-51.317,66.001c-0.984,3.581-1.783,7.196-2.396,10.835
						c-2.657,15.764-1.838,31.937,2.459,47.35c0.077,0.277,0.087,0.556,0.043,0.822c-0.118,0.699-0.627,1.301-1.355,1.505
						c-1.003,0.281-2.048-0.309-2.326-1.312c-4.446-15.95-5.294-32.682-2.545-48.992c0.633-3.763,1.46-7.505,2.477-11.208
						c7.999-29.107,26.853-53.357,53.091-68.283c26.238-14.927,56.729-18.738,85.823-10.744
						c56.345,15.484,91.027,71.248,81.511,127.679c-0.632,3.746-1.458,7.495-2.486,11.236
						C1626.749,983.733,1570.972,1018.418,1514.537,1008.892z"/>
				</g>
			</g>
		</g>
		<g>
			
				<linearGradient id="SVGID_00000001630117441116322100000008767357567470847916_" gradientUnits="userSpaceOnUse" x1="1630.9187" y1="2642.356" x2="2228.1267" y2="850.7267">
				<stop  offset="0" style="stop-color:#09005D"/>
				<stop  offset="1" style="stop-color:#1A0F91"/>
			</linearGradient>
			<path style="fill:url(#SVGID_00000001630117441116322100000008767357567470847916_);" d="M3169.286,2708.451
				c0,25.731-20.984,46.783-46.632,46.783H601.018c-25.647,0-46.631-21.052-46.631-46.783l-20.983-1455.23
				c0-25.73,30.188-75.964,85.512-72.189l2464.422-64.036c32.179-0.836,63.294,11.602,86.081,34.412
				c22.788,22.81,35.257,53.996,34.496,86.281L3169.286,2708.451z"/>
			
				<linearGradient id="SVGID_00000108276741330033909240000011141294582046246585_" gradientUnits="userSpaceOnUse" x1="540.0487" y1="2953.2126" x2="3182.3977" y2="1021.4717">
				<stop  offset="0" style="stop-color:#FE7062"/>
				<stop  offset="1" style="stop-color:#FF928E"/>
			</linearGradient>
			<path style="fill:url(#SVGID_00000108276741330033909240000011141294582046246585_);" d="M3123.249,2663.569
				c0,24.366-19.853,44.302-44.117,44.302H661.828c-24.264,0-44.116-19.936-44.116-44.302l-19.8-1321.071
				c2.332-79.499,71.737-108.071,113.81-106.384c0,0,1926.17-51.894,2361.923-63.634c22.608-0.609,44.467,8.138,60.479,24.177
				c16.013,16.038,24.819,37.988,24.252,60.693L3123.249,2663.569z"/>
			<g style="opacity:0.58;">
				<path style="fill:#FFFFFF;" d="M643.835,2032.537c-1.814,0-3.297-1.345-3.322-3.023l-1.566-107.138
					c-0.024-1.692,1.443-3.084,3.278-3.106c1.813-0.059,3.343,1.33,3.369,3.023l1.566,107.138c0.024,1.692-1.443,3.084-3.278,3.106
					C643.866,2032.537,643.851,2032.537,643.835,2032.537z"/>
				<path style="fill:#FFFFFF;" d="M639.995,1769.996c-1.814,0-3.297-1.345-3.322-3.023l-6.001-410.332
					c0.13-28.596,9.334-51.12,27.359-67c29.913-26.349,74.315-24.954,76.166-24.892l754.265-20.327
					c1.926-0.079,3.367,1.282,3.419,2.973c0.053,1.692-1.391,3.104-3.224,3.153l-754.473,20.327
					c-2.031-0.072-43.672-1.374-71.563,23.199c-16.668,14.684-25.181,35.725-25.303,62.54l6.001,410.277
					c0.024,1.692-1.443,3.084-3.278,3.107C640.026,1769.996,640.012,1769.996,639.995,1769.996z"/>
			</g>
			
				<linearGradient id="SVGID_00000156584879309903977020000014039815249048164282_" gradientUnits="userSpaceOnUse" x1="2951.6899" y1="2547.613" x2="399.4927" y2="3168.4175">
				<stop  offset="0" style="stop-color:#09005D"/>
				<stop  offset="1" style="stop-color:#1A0F91"/>
			</linearGradient>
			<path style="fill:url(#SVGID_00000156584879309903977020000014039815249048164282_);" d="M3286.479,2876.037H442.183
				c-4.128,0-7.505-3.377-7.505-7.505V2755.68c0-4.128,3.377-7.505,7.505-7.505h2844.296c4.128,0,7.505,3.377,7.505,7.505v112.852
				C3293.983,2872.659,3290.606,2876.037,3286.479,2876.037z"/>
		</g>
		<g>
			
				<linearGradient id="SVGID_00000137853922733034607990000010965142747060974518_" gradientUnits="userSpaceOnUse" x1="845.667" y1="2510.9668" x2="2708.6211" y2="2510.9668">
				<stop  offset="0" style="stop-color:#09005D"/>
				<stop  offset="1" style="stop-color:#1A0F91"/>
			</linearGradient>
			<path style="fill:url(#SVGID_00000137853922733034607990000010965142747060974518_);" d="M845.667,2069.729v826.27
				c0,67.972,54.165,123.556,122.114,125.309c301.794,7.782,1357.324,26.652,1644.611,22.417
				c49.377-0.728,89.377-40.241,90.802-89.603c5.54-191.954,14.537-653.538-18.759-867.834
				c-7.011-45.128-45.104-78.874-90.75-80.334c-252.865-8.089-1371.796-33.776-1658.95-27.327
				C885.212,1979.738,845.667,2020.192,845.667,2069.729z"/>
			
				<linearGradient id="SVGID_00000178194291201224385880000005969812455205213348_" gradientUnits="userSpaceOnUse" x1="2685.2681" y1="3086.2158" x2="932.8995" y2="1920.2688">
				<stop  offset="0" style="stop-color:#FE7062"/>
				<stop  offset="1" style="stop-color:#FF928E"/>
			</linearGradient>
			<path style="fill:url(#SVGID_00000178194291201224385880000005969812455205213348_);" d="M897.513,2065.707v785.013
				c0,39.686,31.857,72.022,71.538,72.616l1602.011,19.792c39.342,0.588,71.589-31.063,71.736-70.408l2.68-778
				c0.105-28.133-22.308-51.184-50.433-51.868l-1640.162-33.135C923.426,2008.951,897.513,2034.242,897.513,2065.707z"/>
		</g>
		<g>
			
				<linearGradient id="SVGID_00000161630751516725035320000006737322221874556312_" gradientUnits="userSpaceOnUse" x1="2940.8445" y1="3352.5566" x2="2330.6792" y2="2118.3606" gradientTransform="matrix(0.9999 -0.015 0.015 0.9999 -44.3337 10.1347)">
				<stop  offset="0" style="stop-color:#09005D"/>
				<stop  offset="1" style="stop-color:#1A0F91"/>
			</linearGradient>
			<path style="fill:url(#SVGID_00000161630751516725035320000006737322221874556312_);" d="M2325.98,2257.525
				c-0.985,159.384-3.687,709.147,4.465,903.83c0.864,20.625,15.25,36.974,32.897,37.384c87.281,2.03,407.191,5.695,549.767-3.449
				c29.697-1.906,52.906-30.421,53.001-65.219c0.455-167.285-0.063-637.767-18.845-853.016
				c-2.251-25.791-19.881-46.091-41.958-48.339c-95.165-9.692-416.732-32.048-539.86-20.84
				C2343.242,2209.898,2326.142,2231.462,2325.98,2257.525z"/>
			
				<linearGradient id="SVGID_00000160183989799787084530000006275759284292376731_" gradientUnits="userSpaceOnUse" x1="3491.8113" y1="3612.6934" x2="2643.2222" y2="2674.4167">
				<stop  offset="0" style="stop-color:#FE7062"/>
				<stop  offset="1" style="stop-color:#FF928E"/>
			</linearGradient>
			<path style="fill:url(#SVGID_00000160183989799787084530000006275759284292376731_);" d="M2365.636,2305.826
				c-2.764,128.675-11.153,556.737-4.079,714.873c1.034,23.114,16.894,41.578,36.659,42.632
				c81.378,4.346,358.921,12.454,477.993-0.506c21.441-2.333,37.984-22.899,38.765-48.079
				c4.074-131.294,15.444-529.933,8.59-686.299c-1.093-24.945-17.923-45.077-39.215-46.991
				c-88.088-7.918-383.142-25.474-484.371-17.485C2380.976,2265.469,2366.115,2283.549,2365.636,2305.826z"/>
			<path style="opacity:0.5;fill:#FFFFFF;" d="M2541.244,2233.085L2541.244,2233.085c0.073,4.89,3.391,8.873,7.568,9.066
				c20.623,0.954,78.716,3.653,104.682,5.025c5.119,0.27,9.053-5.169,7.994-11.039l-0.181-1.001
				c-0.721-4.006-3.614-6.985-7.101-7.306c-17.561-1.617-70.545-6.034-105.576-4.045
				C2544.421,2224.025,2541.17,2228.156,2541.244,2233.085z"/>
		</g>
		<g>
			<g>
				
					<linearGradient id="SVGID_00000160878725809430013940000004474766342029347985_" gradientUnits="userSpaceOnUse" x1="1440.8448" y1="1906.9476" x2="2859.4558" y2="1906.9476">
					<stop  offset="0" style="stop-color:#4042E2"/>
					<stop  offset="1" style="stop-color:#4F52FF"/>
				</linearGradient>
				<path style="fill:url(#SVGID_00000160878725809430013940000004474766342029347985_);" d="M2855.678,1496.818
					c-3.151-48.696-32.558-91.833-76.637-112.769l-571.094-271.233c-36.574-17.37-79.02-17.37-115.593,0l-571.094,271.233
					c-44.08,20.935-73.487,64.073-76.638,112.769c-53.569,828.037,477.359,1129.741,651.402,1205.953
					c34.517,15.115,73.733,15.115,108.25,0C2378.319,2626.559,2909.246,2324.855,2855.678,1496.818z"/>
				<path style="fill:#91B3FA;" d="M1977.402,1227.608c-3.227,0-6.32-1.819-7.795-4.928c-2.045-4.302-0.212-9.446,4.09-11.487
					l134.94-64.086c4.298-2.052,9.442-0.216,11.487,4.09c2.045,4.302,0.212,9.446-4.09,11.487l-134.94,64.086
					C1979.902,1227.338,1978.642,1227.608,1977.402,1227.608z"/>
				<path style="fill:#91B3FA;" d="M1488.294,1674.537c-4.629,0-8.456-3.672-8.614-8.334c-1.809-53.862-0.862-110.025,2.82-166.933
					c2.257-34.866,23.348-65.878,55.045-80.933l384.18-182.462c4.295-2.052,9.446-0.216,11.487,4.09
					c2.045,4.302,0.212,9.446-4.09,11.487l-384.18,182.462c-26.043,12.373-43.375,37.844-45.228,66.468
					c-3.645,56.348-4.585,111.942-2.793,165.242c0.158,4.76-3.571,8.749-8.331,8.91
					C1488.493,1674.537,1488.392,1674.537,1488.294,1674.537z"/>
				
					<linearGradient id="SVGID_00000009552235945176123900000002931952050142456980_" gradientUnits="userSpaceOnUse" x1="1883.5818" y1="2196.9316" x2="3006.0723" y2="246.9643">
					<stop  offset="0" style="stop-color:#09005D"/>
					<stop  offset="1" style="stop-color:#1A0F91"/>
				</linearGradient>
				<path style="fill:url(#SVGID_00000009552235945176123900000002931952050142456980_);" d="M2717.576,1529.136
					c-0.631-12.345-7.98-23.364-19.146-28.667l-533.875-253.558c-9.115-4.329-19.694-4.329-28.81,0l-533.873,253.558
					c-11.166,5.303-18.515,16.323-19.146,28.667c-15.788,308.884,55.558,566.606,212.207,766.357
					c119.43,152.292,259.14,233.905,341.008,271.98c9.02,4.195,19.399,4.196,28.419,0c81.867-38.074,221.578-119.688,341.008-271.98
					C2662.017,2095.742,2733.363,1838.018,2717.576,1529.136z"/>
				<g>
					
						<linearGradient id="SVGID_00000139284503009558728110000015692052510492709504_" gradientUnits="userSpaceOnUse" x1="2133.3455" y1="1480.5527" x2="2190.7202" y2="2084.9028">
						<stop  offset="0" style="stop-color:#FE7062"/>
						<stop  offset="1" style="stop-color:#FF928E"/>
					</linearGradient>
					<path style="fill:url(#SVGID_00000139284503009558728110000015692052510492709504_);" d="M1992.299,1861.001h-53.208v-212.04
						c0-83.283,62.344-153.663,145.019-163.711l108.791-13.22c46.824-5.691,93.936,8.984,129.248,40.263
						c35.311,31.28,55.563,76.273,55.563,123.447v185.114h-53.208V1635.74c0-31.953-13.717-62.43-37.636-83.618
						c-23.918-21.187-55.833-31.13-87.546-27.273l-108.792,13.221c-56,6.805-98.229,54.478-98.229,110.89V1861.001z"/>
					
						<linearGradient id="SVGID_00000081630946134877906220000002364551910089643664_" gradientUnits="userSpaceOnUse" x1="2116.6404" y1="1778.7809" x2="2264.9348" y2="2488.0134">
						<stop  offset="0" style="stop-color:#FE7062"/>
						<stop  offset="1" style="stop-color:#FF928E"/>
					</linearGradient>
					<path style="fill:url(#SVGID_00000081630946134877906220000002364551910089643664_);" d="M1923.361,1813.396l466.423-25.841
						c18.944-1.049,34.881,14.029,34.881,33.002v369.505c0,18.254-14.798,33.052-33.052,33.052h-455.216
						c-17.835,0-32.454-14.15-33.035-31.975l-11.206-343.665C1891.569,1829.522,1905.427,1814.389,1923.361,1813.396z"/>
					
						<linearGradient id="SVGID_00000004536451685716872710000006370301001575002795_" gradientUnits="userSpaceOnUse" x1="2242.2002" y1="1922.0768" x2="2081.5474" y2="2132.4385">
						<stop  offset="0" style="stop-color:#09005D"/>
						<stop  offset="1" style="stop-color:#1A0F91"/>
					</linearGradient>
					<path style="fill:url(#SVGID_00000004536451685716872710000006370301001575002795_);" d="M2234.44,2117.263l-28.23-81.163
						c-3.394-9.758-1.082-20.668,6.175-28.022c14.467-14.659,23.088-35.099,22.066-57.549
						c-1.801-39.591-34.143-71.691-73.745-73.212c-43.827-1.684-79.887,33.346-79.887,76.799c0,24.106,11.103,45.61,28.471,59.697
						c9.007,7.306,12.71,19.314,8.899,30.269l-25.454,73.181c-6.19,17.798,7.024,36.385,25.867,36.385h89.969
						C2227.416,2153.647,2240.631,2135.06,2234.44,2117.263z"/>
				</g>
			</g>
		</g>
		<g>
			
				<linearGradient id="SVGID_00000047770697776477886750000010327108794824603008_" gradientUnits="userSpaceOnUse" x1="15943.1279" y1="3042.3389" x2="15468.8672" y2="3558.2019" gradientTransform="matrix(1 0.0095 -0.0095 1 -14509.4072 -63.4747)">
				<stop  offset="0" style="stop-color:#09005D"/>
				<stop  offset="1" style="stop-color:#1A0F91"/>
			</linearGradient>
			<path style="fill:url(#SVGID_00000047770697776477886750000010327108794824603008_);" d="M1254.538,3167.322
				c0,0-5.177,27.76-7.847,55.262c-1.044,10.748,7.16,20.167,17.945,20.72c36.64,1.876,115.02,5.593,143.168,4.606
				c4.231-0.149,7.038-4.452,5.51-8.401c-1.28-3.309-3.784-5.999-6.995-7.511l-128.946-60.76L1254.538,3167.322z"/>
			<path style="fill:#FFFFFF;" d="M1250.67,3150.946l3.629,33.297c0,0,22.587,10.778,38.194-0.967l-9.041-37.155L1250.67,3150.946z"
				/>
			
				<linearGradient id="SVGID_00000140694676173150394250000010711272924358709922_" gradientUnits="userSpaceOnUse" x1="1183.3666" y1="3229.447" x2="1255.8076" y2="2560.2339">
				<stop  offset="0" style="stop-color:#09005D"/>
				<stop  offset="1" style="stop-color:#1A0F91"/>
			</linearGradient>
			<path style="fill:url(#SVGID_00000140694676173150394250000010711272924358709922_);" d="M1259.601,2525.676
				c-1.787,8.669-13.284,433.347,30.302,624.125c0.711,3.113-0.894,6.299-3.861,7.479c-6.991,2.779-20.682,6.769-37.048,7.162
				c-5.068,0.122-9.58-3.214-10.963-8.091c-12.557-44.287-72.635-266.148-78.731-477.596c-6.812-236.273,0.077-8.042,0.077-8.042
				l6.709-145.945L1259.601,2525.676z"/>
			
				<linearGradient id="SVGID_00000149352525780680587810000008395552761546849428_" gradientUnits="userSpaceOnUse" x1="15836.7354" y1="2944.5095" x2="15362.4541" y2="3460.394" gradientTransform="matrix(1 0.0095 -0.0095 1 -14509.4072 -63.4747)">
				<stop  offset="0" style="stop-color:#09005D"/>
				<stop  offset="1" style="stop-color:#1A0F91"/>
			</linearGradient>
			<path style="fill:url(#SVGID_00000149352525780680587810000008395552761546849428_);" d="M1105.415,3180.408
				c0,0-7.953,13.963-15.878,51.192c-1.431,6.724,3.214,13.215,10.048,13.954c12.093,1.306,30.711,3.014,45.638,3.054
				c6.88,0.018,12.307-5.922,11.544-12.76c-1.523-13.631-6.461-36.019-22.206-53.581L1105.415,3180.408z"/>
			<path style="fill:#FFFFFF;" d="M1098.956,3137.562l8.741,50.386c0,0,9.053,6.868,27.135,2.124l-3.885-54.159L1098.956,3137.562z"
				/>
			
				<linearGradient id="SVGID_00000054979509702134098600000003983791370714594476_" gradientUnits="userSpaceOnUse" x1="1096.7679" y1="3220.073" x2="1169.2092" y2="2550.8579">
				<stop  offset="0" style="stop-color:#09005D"/>
				<stop  offset="1" style="stop-color:#1A0F91"/>
			</linearGradient>
			<path style="fill:url(#SVGID_00000054979509702134098600000003983791370714594476_);" d="M1079.773,2536.996
				c-39.271,223.747,2.771,553.961,17.395,618.653c0.895,3.961,4.056,7.019,8.055,7.721c6.792,1.192,17.983,2.219,29.055-0.883
				c3.814-1.068,6.52-4.474,6.713-8.431c2.543-52.164,1.919-372.558,37.726-498.835c1.814-6.399,5.786-11.958,11.244-15.76
				l67.61-47.1l5.885-77.122L1079.773,2536.996z"/>
			<g>
				
					<linearGradient id="SVGID_00000099655113222845932130000005135846437653159862_" gradientUnits="userSpaceOnUse" x1="-4838.7788" y1="4158.5781" x2="-4286.561" y2="3533.7002" gradientTransform="matrix(-1 0 0 1 -1965.7961 0)">
					<stop  offset="0" style="stop-color:#4042E2"/>
					<stop  offset="1" style="stop-color:#4F52FF"/>
				</linearGradient>
				<path style="fill:url(#SVGID_00000099655113222845932130000005135846437653159862_);" d="M1320.437,2114.625
					c-111.263-2.9-234.345,26.986-234.345,26.986c-35.017,193.232-9.776,416.739-9.776,416.739
					c85.935,23.414,183.465-12.064,183.465-12.064c15.091-80.762,84.071-307.801,84.071-307.801
					c54.435-6.229,99.375-21.489,136.458-41.876c-27.824-32.882-40.692-74.507-46.219-99.092
					C1394.63,2109.368,1354.755,2115.52,1320.437,2114.625z"/>
				<path style="fill:#FFFFFF;" d="M1650.705,1953.851c-10.805-13.308-24.701-7.194-24.701-7.194
					c-17.036,69.017-103.436,124.286-191.912,150.86c5.526,24.586,18.395,66.21,46.219,99.092
					C1627.497,2115.69,1650.705,1953.851,1650.705,1953.851z"/>
			</g>
			<g>
				<path style="fill:#FFFFFF;" d="M1648.02,1957.182c1.109,3.647-12.189,9.058-19.847-5.888
					c-0.204-7.131-4.248-37.708,0.067-43.474c22.979-30.709,67.328-69.057,67.328-69.057c7.363,7.406,1.171,14.552,1.171,14.552
					l-21.548,22.022c4.386,8.106,9.765,14.966,12.222,24.744c1.861,7.405,0.604,15.288-3.191,21.975
					c-3.809,6.711-9.002,15.433-13.898,22.25C1661.058,1957.209,1648.02,1957.182,1648.02,1957.182z"/>
				<path style="fill:#FFFFFF;" d="M1665.723,1889.668l-19.599,16.296l-6.261,16.351l17.151,19.396c0,0,6.139-32.504,10.538-39.51
					C1671.95,1895.196,1669.736,1891.767,1665.723,1889.668z"/>
			</g>
			
				<linearGradient id="SVGID_00000136374049046427558730000004009663492748210110_" gradientUnits="userSpaceOnUse" x1="-4762.4204" y1="4226.0669" x2="-4210.2041" y2="3601.1902" gradientTransform="matrix(-1 0 0 1 -1965.7961 0)">
				<stop  offset="0" style="stop-color:#4042E2"/>
				<stop  offset="1" style="stop-color:#4F52FF"/>
			</linearGradient>
			<path style="fill:url(#SVGID_00000136374049046427558730000004009663492748210110_);" d="M1127.746,2249.771l-41.654-108.16
				c0,0-104.617,69.633-122.565,159.014c19.626,1.634,55.316,7.083,90.129,25.08
				C1061.746,2283.497,1127.746,2249.771,1127.746,2249.771z"/>
			<path style="fill:#FFFFFF;" d="M1217.614,2352.03c0,0-117.331,64.841-156.17,8.148c-8.063-11.772-9.908-23.412-7.788-34.472
				c-34.813-17.997-70.502-23.446-90.129-25.08c-5.411,26.946-2.961,55.682,12.625,84.851
				c67.772,126.833,256.631-4.525,256.631-4.525L1217.614,2352.03z"/>
			<path style="fill:#FFFFFF;" d="M1208.581,2023.207l-36.385,102.06c-0.603,1.69,0.076,3.575,1.639,4.459
				c9.601,5.428,44.227,21.185,86.386-4.984c4.392-2.726,7.407-7.212,8.119-12.332l12.311-88.516L1208.581,2023.207z"/>
			<g>
				<path style="fill:#FFFFFF;" d="M1286.527,1929.12c0,0,38.184,73.561,32.918,103.079c-5.266,29.517-53.433,26.935-95.283,2.522
					l-28.65-79.31L1286.527,1929.12z"/>
				
					<linearGradient id="SVGID_00000027571972597830097510000016456229658142448518_" gradientUnits="userSpaceOnUse" x1="6134.5786" y1="8936.9492" x2="6168.2402" y2="9128.9443" gradientTransform="matrix(0.7523 -0.6588 0.6588 0.7523 -9376.0049 -818.1582)">
					<stop  offset="0" style="stop-color:#09005D"/>
					<stop  offset="1" style="stop-color:#1A0F91"/>
				</linearGradient>
				<path style="fill:url(#SVGID_00000027571972597830097510000016456229658142448518_);" d="M1226.392,1995.927
					c1.717-0.741,2.368-2.828,1.359-4.403c-3.07-4.788-8.816-14.552-10.599-23.07c0,0-6.947-4.543,17.889-10.238
					c24.837-5.695,61.878-14.549,69.846-35.567c7.769-20.493-11.635-72.398-43.773-31.495c-1.222,1.557-3.589,1.569-4.78-0.012
					c-5.139-6.823-18.686-21.012-37.763-12.67c-17.851,7.807-19.978,20.813-19.797,27.381c0.053,1.932-1.688,3.417-3.582,3.037
					c-8.971-1.8-30.523-3.478-40.801,18.55c-8.465,18.144-3.174,28.511,1.686,33.602c1.574,1.65,0.852,4.335-1.335,4.981
					c-5.924,1.752-13.598,6.688-12.967,20.533c0.873,19.141,22.278,17.659,28.376,16.845c0.999-0.133,2.002,0.219,2.67,0.973
					c5.167,5.828,28.458,30.588,53.892,33.788c2.203,0.277,3.932-1.883,3.23-3.99l-10.714-32.136
					c-0.498-1.492,0.23-3.118,1.674-3.741L1226.392,1995.927z"/>
				<path style="fill:#FFFFFF;" d="M1230.778,2000.516c0,0-27.503-19.258-29.678-3.282c-2.174,15.976,24.708,23.406,38.115,17.57
					L1230.778,2000.516z"/>
			</g>
			<g>
				<g>
					
						<linearGradient id="SVGID_00000127739498909130476630000000613975486228842410_" gradientUnits="userSpaceOnUse" x1="15547.0137" y1="2197.0671" x2="15697.3047" y2="2823.2798" gradientTransform="matrix(1 0 0 1 -14241.1191 0)">
						<stop  offset="0" style="stop-color:#09005D"/>
						<stop  offset="1" style="stop-color:#1A0F91"/>
					</linearGradient>
					<path style="fill:url(#SVGID_00000127739498909130476630000000613975486228842410_);" d="M1193.635,2454.503l63.915-223.205
						c0.726-2.534,2.887-4.381,5.505-4.687c11.58-1.351,45.136-5.145,83.878-8.421c46.667-3.948,100.861-7.146,133.246-4.425
						c4.604,0.387,7.386,5.257,5.339,9.398c-18.415,37.258-94.167,188.813-132.101,238.461c-1.257,1.645-3.2,2.607-5.27,2.587
						l-148.293-1.38C1195.537,2462.791,1192.447,2458.651,1193.635,2454.503z"/>
					<path style="fill:#FFFFFF;" d="M1209.077,2400.576c0,0-8.904-36.61-5.312-49.599c3.592-12.989,10.55-29.689,33.744-25.978
						c23.194,3.711,50.554,13.482,50.554,13.482s-1.382,16.918-19.01,11.46l10.932,8.458c0,0-1.563,13.546-16.452,6.309
						l10.167,11.217c0,0-6.395,11.125-17.35,3.99C1245.395,2372.78,1240.143,2404.985,1209.077,2400.576z"/>
				</g>
				<path style="fill:#91B3FA;" d="M1342.672,2284.821c0,10.362,8.4,18.762,18.762,18.762c10.362,0,18.762-8.399,18.762-18.762
					c0-10.363-8.4-18.762-18.762-18.762C1351.072,2266.059,1342.672,2274.458,1342.672,2284.821z"/>
				
					<linearGradient id="SVGID_00000020400371006660169420000007563906662853477015_" gradientUnits="userSpaceOnUse" x1="1259.996" y1="2262.1455" x2="1442.7126" y2="2262.1455">
					<stop  offset="0" style="stop-color:#4042E2"/>
					<stop  offset="1" style="stop-color:#4F52FF"/>
				</linearGradient>
				<path style="fill:url(#SVGID_00000020400371006660169420000007563906662853477015_);" d="M1264.782,2297.189l13.013-44.144
					c1.596-5.421,5.955-9.491,11.373-10.623c40.787-8.51,152.422-10.314,153.545-10.331l-0.074-4.988
					c-4.604,0.071-113.239,1.832-154.489,10.439c-7.219,1.506-13.02,6.906-15.14,14.092l-13.013,44.144L1264.782,2297.189z"/>
			</g>
		</g>
	</g>
</g>
</svg>
